<svg width="24" height="24" viewBox="0 0 24 24" fill="none" xmlns="http://www.w3.org/2000/svg">
<g clip-path="url(#clip0_111_947)">
<path d="M5.31891 14.5033L4.4835 17.622L1.43011 17.6865C0.517594 15.994 0 14.0576 0 11.9998C0 10.0099 0.483938 8.13338 1.34175 6.48108H1.34241L4.06078 6.97945L5.25159 9.68152C5.00236 10.4081 4.86652 11.1881 4.86652 11.9998C4.86661 12.8806 5.02617 13.7246 5.31891 14.5033Z" fill="#FBBB00"/>
<path d="M23.7903 9.75806C23.9281 10.484 24 11.2336 24 11.9998C24 12.8589 23.9097 13.697 23.7376 14.5053C23.1534 17.2561 21.627 19.6581 19.5125 21.3578L19.5119 21.3572L16.088 21.1825L15.6034 18.1574C17.0064 17.3346 18.1029 16.0469 18.6805 14.5053H12.2638V9.75806H23.7903Z" fill="#2F80ED"/>
<path d="M19.5119 21.3571L19.5125 21.3578C17.4561 23.0107 14.8437 23.9997 12 23.9997C7.43011 23.9997 3.45694 21.4455 1.43011 17.6866L5.31891 14.5033C6.3323 17.2079 8.94132 19.1332 12 19.1332C13.3147 19.1332 14.5464 18.7778 15.6033 18.1573L19.5119 21.3571Z" fill="#28B446"/>
<path d="M19.6595 2.76238L15.7721 5.94501C14.6782 5.26129 13.3852 4.86632 12 4.86632C8.87206 4.86632 6.21425 6.87993 5.25163 9.68151L1.34239 6.48107H1.34174C3.33889 2.63052 7.36217 -0.000244141 12 -0.000244141C14.9116 -0.000244141 17.5813 1.03691 19.6595 2.76238Z" fill="#F14336"/>
</g>
<defs>
<clipPath id="clip0_111_947">
<rect width="24" height="24" fill="white" transform="translate(0 -0.000244141)"/>
</clipPath>
</defs>
</svg>
