<svg width="57" height="42" viewBox="0 0 57 42" fill="none" xmlns="http://www.w3.org/2000/svg">
<path d="M55.0992 36.3999H1.90022C1.12674 36.3999 0.500249 37.0264 0.500249 37.7999V40.5999C0.500249 41.3733 1.12674 41.9998 1.90022 41.9998H55.0992C55.8727 41.9998 56.4992 41.3733 56.4992 40.5999V37.7999C56.4992 37.0264 55.8727 36.3999 55.0992 36.3999ZM7.54824 27.0612C8.09773 27.6597 8.86946 27.9992 9.67707 27.9984L21.0991 27.9826C22.0005 27.9814 22.889 27.768 23.6926 27.3596L49.1511 14.4405C51.4908 13.2531 53.5881 11.5583 55.0152 9.33845C56.6173 6.8465 56.7914 5.04316 56.1588 3.76918C55.528 2.49433 53.9941 1.5581 51.062 1.36735C48.4502 1.19761 45.8524 1.88534 43.5127 3.07182L34.8932 7.44586L15.7573 0.265751C15.5273 0.110754 15.2599 0.0200281 14.9831 0.0029532C14.7062 -0.0141217 14.4297 0.0430742 14.1824 0.168627L8.42935 3.08845C7.49574 3.56181 7.27 4.80779 7.97698 5.58477L21.646 14.1684L12.6153 18.7515L6.28476 15.5605C6.06666 15.4505 5.82576 15.3934 5.58151 15.3937C5.33725 15.394 5.09649 15.4517 4.87867 15.5622L1.36736 17.3446C0.453875 17.8083 0.213254 19.0175 0.879992 19.8015L7.54824 27.0612Z" fill="#001F3F"/>
</svg>
