<svg width="56" height="42" viewBox="0 0 56 42" fill="none" xmlns="http://www.w3.org/2000/svg">
<path d="M54.5992 36.3999H1.40022C0.626737 36.3999 0.000248724 37.0264 0.000248724 37.7999V40.5999C0.000248724 41.3733 0.626737 41.9998 1.40022 41.9998H54.5992C55.3727 41.9998 55.9992 41.3733 55.9992 40.5999V37.7999C55.9992 37.0264 55.3727 36.3999 54.5992 36.3999ZM7.04824 27.0612C7.59773 27.6597 8.36946 27.9992 9.17707 27.9984L20.5991 27.9826C21.5005 27.9814 22.389 27.768 23.1926 27.3596L48.6511 14.4405C50.9908 13.2531 53.0881 11.5583 54.5152 9.33845C56.1173 6.8465 56.2914 5.04316 55.6588 3.76918C55.028 2.49433 53.4941 1.5581 50.562 1.36735C47.9502 1.19761 45.3524 1.88534 43.0127 3.07182L34.3932 7.44586L15.2573 0.265751C15.0273 0.110754 14.7599 0.0200281 14.4831 0.0029532C14.2062 -0.0141217 13.9297 0.0430742 13.6824 0.168627L7.92935 3.08845C6.99574 3.56181 6.77 4.80779 7.47698 5.58477L21.146 14.1684L12.1153 18.7515L5.78476 15.5605C5.56666 15.4505 5.32576 15.3934 5.08151 15.3937C4.83725 15.394 4.59649 15.4517 4.37867 15.5622L0.867357 17.3446C-0.0461253 17.8083 -0.286746 19.0175 0.379992 19.8015L7.04824 27.0612Z" fill="#001F3F"/>
</svg>
