<svg width="124" height="42" viewBox="0 0 124 42" fill="none" xmlns="http://www.w3.org/2000/svg">
<path d="M55.0992 36.3999H1.90022C1.12674 36.3999 0.500249 37.0264 0.500249 37.7999V40.5999C0.500249 41.3733 1.12674 41.9998 1.90022 41.9998H55.0992C55.8727 41.9998 56.4992 41.3733 56.4992 40.5999V37.7999C56.4992 37.0264 55.8727 36.3999 55.0992 36.3999ZM7.54824 27.0612C8.09773 27.6597 8.86946 27.9992 9.67707 27.9984L21.0991 27.9826C22.0005 27.9814 22.889 27.768 23.6926 27.3596L49.1511 14.4405C51.4908 13.2531 53.5881 11.5583 55.0152 9.33845C56.6173 6.8465 56.7914 5.04316 56.1588 3.76918C55.528 2.49433 53.9941 1.5581 51.062 1.36735C48.4502 1.19761 45.8524 1.88534 43.5127 3.07182L34.8932 7.44586L15.7573 0.265751C15.5273 0.110754 15.2599 0.0200281 14.9831 0.0029532C14.7062 -0.0141217 14.4297 0.0430742 14.1824 0.168627L8.42935 3.08845C7.49574 3.56181 7.27 4.80779 7.97698 5.58477L21.646 14.1684L12.6153 18.7515L6.28476 15.5605C6.06666 15.4505 5.82576 15.3934 5.58151 15.3937C5.33725 15.394 5.09649 15.4517 4.87867 15.5622L1.36736 17.3446C0.453875 17.8083 0.213254 19.0175 0.879992 19.8015L7.54824 27.0612Z" fill="#001F3F"/>
<path d="M69.75 23.54L67.99 18.73C67.9033 18.5167 67.8133 18.2633 67.72 17.97C67.6267 17.6767 67.5333 17.36 67.44 17.02C67.3533 17.36 67.2633 17.68 67.17 17.98C67.0767 18.2733 66.9867 18.53 66.9 18.75L65.15 23.54H69.75ZM74.5 29H72.42C72.1867 29 71.9967 28.9433 71.85 28.83C71.7033 28.71 71.5933 28.5633 71.52 28.39L70.44 25.44H64.45L63.37 28.39C63.3167 28.5433 63.2133 28.6833 63.06 28.81C62.9067 28.9367 62.7167 29 62.49 29H60.39L66.08 14.54H68.82L74.5 29ZM78.1472 18.74V29H75.6672V18.74H78.1472ZM78.4872 15.75C78.4872 15.9633 78.4439 16.1633 78.3572 16.35C78.2705 16.5367 78.1539 16.7 78.0072 16.84C77.8672 16.98 77.7005 17.0933 77.5072 17.18C77.3139 17.26 77.1072 17.3 76.8872 17.3C76.6739 17.3 76.4705 17.26 76.2772 17.18C76.0905 17.0933 75.9272 16.98 75.7872 16.84C75.6472 16.7 75.5339 16.5367 75.4472 16.35C75.3672 16.1633 75.3272 15.9633 75.3272 15.75C75.3272 15.53 75.3672 15.3233 75.4472 15.13C75.5339 14.9367 75.6472 14.77 75.7872 14.63C75.9272 14.49 76.0905 14.38 76.2772 14.3C76.4705 14.2133 76.6739 14.17 76.8872 14.17C77.1072 14.17 77.3139 14.2133 77.5072 14.3C77.7005 14.38 77.8672 14.49 78.0072 14.63C78.1539 14.77 78.2705 14.9367 78.3572 15.13C78.4439 15.3233 78.4872 15.53 78.4872 15.75ZM82.9953 20.52C83.3153 19.9067 83.6953 19.4267 84.1353 19.08C84.5753 18.7267 85.0953 18.55 85.6953 18.55C86.1686 18.55 86.5486 18.6533 86.8353 18.86L86.6753 20.71C86.642 20.83 86.592 20.9167 86.5253 20.97C86.4653 21.0167 86.382 21.04 86.2753 21.04C86.1753 21.04 86.0253 21.0233 85.8253 20.99C85.632 20.9567 85.442 20.94 85.2553 20.94C84.982 20.94 84.7386 20.98 84.5253 21.06C84.312 21.14 84.1186 21.2567 83.9453 21.41C83.7786 21.5567 83.6286 21.7367 83.4953 21.95C83.3686 22.1633 83.2486 22.4067 83.1353 22.68V29H80.6653V18.74H82.1153C82.3686 18.74 82.5453 18.7867 82.6453 18.88C82.7453 18.9667 82.812 19.1267 82.8453 19.36L82.9953 20.52ZM102.776 18.74L99.5163 29H97.5363C97.3096 29 97.1529 28.8533 97.0663 28.56L95.2263 22.63C95.1663 22.43 95.1096 22.2333 95.0563 22.04C95.0096 21.84 94.9696 21.64 94.9363 21.44C94.8963 21.64 94.8496 21.8433 94.7963 22.05C94.7496 22.25 94.6963 22.45 94.6363 22.65L92.7663 28.56C92.6863 28.8533 92.5096 29 92.2363 29H90.3363L87.0863 18.74H89.0563C89.2363 18.74 89.3896 18.7833 89.5163 18.87C89.6429 18.9567 89.7263 19.0667 89.7663 19.2L91.2363 24.68C91.3096 24.98 91.3729 25.2733 91.4263 25.56C91.4863 25.8467 91.5363 26.1333 91.5763 26.42C91.6496 26.1333 91.7263 25.8467 91.8063 25.56C91.8929 25.2733 91.9829 24.98 92.0763 24.68L93.7763 19.18C93.8163 19.0467 93.8929 18.9367 94.0063 18.85C94.1263 18.7633 94.2696 18.72 94.4363 18.72H95.5263C95.6996 18.72 95.8463 18.7633 95.9663 18.85C96.0929 18.9367 96.1763 19.0467 96.2163 19.18L97.8663 24.68C97.9529 24.98 98.0329 25.2767 98.1063 25.57C98.1863 25.8567 98.2629 26.1433 98.3363 26.43C98.4229 25.8633 98.5463 25.28 98.7063 24.68L100.216 19.2C100.263 19.0667 100.346 18.9567 100.466 18.87C100.586 18.7833 100.73 18.74 100.896 18.74H102.776ZM109.464 24.62C108.751 24.6533 108.151 24.7167 107.664 24.81C107.178 24.8967 106.788 25.01 106.494 25.15C106.201 25.29 105.991 25.4533 105.864 25.64C105.738 25.8267 105.674 26.03 105.674 26.25C105.674 26.6833 105.801 26.9933 106.054 27.18C106.314 27.3667 106.651 27.46 107.064 27.46C107.571 27.46 108.008 27.37 108.374 27.19C108.748 27.0033 109.111 26.7233 109.464 26.35V24.62ZM103.804 20.17C104.984 19.09 106.404 18.55 108.064 18.55C108.664 18.55 109.201 18.65 109.674 18.85C110.148 19.0433 110.548 19.3167 110.874 19.67C111.201 20.0167 111.448 20.4333 111.614 20.92C111.788 21.4067 111.874 21.94 111.874 22.52V29H110.754C110.521 29 110.341 28.9667 110.214 28.9C110.088 28.8267 109.988 28.6833 109.914 28.47L109.694 27.73C109.434 27.9633 109.181 28.17 108.934 28.35C108.688 28.5233 108.431 28.67 108.164 28.79C107.898 28.91 107.611 29 107.304 29.06C107.004 29.1267 106.671 29.16 106.304 29.16C105.871 29.16 105.471 29.1033 105.104 28.99C104.738 28.87 104.421 28.6933 104.154 28.46C103.888 28.2267 103.681 27.9367 103.534 27.59C103.388 27.2433 103.314 26.84 103.314 26.38C103.314 26.12 103.358 25.8633 103.444 25.61C103.531 25.35 103.671 25.1033 103.864 24.87C104.064 24.6367 104.321 24.4167 104.634 24.21C104.948 24.0033 105.331 23.8233 105.784 23.67C106.244 23.5167 106.778 23.3933 107.384 23.3C107.991 23.2 108.684 23.14 109.464 23.12V22.52C109.464 21.8333 109.318 21.3267 109.024 21C108.731 20.6667 108.308 20.5 107.754 20.5C107.354 20.5 107.021 20.5467 106.754 20.64C106.494 20.7333 106.264 20.84 106.064 20.96C105.864 21.0733 105.681 21.1767 105.514 21.27C105.354 21.3633 105.174 21.41 104.974 21.41C104.801 21.41 104.654 21.3667 104.534 21.28C104.414 21.1867 104.318 21.08 104.244 20.96L103.804 20.17ZM123.228 18.74L117.638 31.82C117.564 31.9933 117.468 32.1233 117.348 32.21C117.234 32.3033 117.058 32.35 116.818 32.35H114.978L116.898 28.23L112.748 18.74H114.918C115.111 18.74 115.261 18.7867 115.368 18.88C115.481 18.9733 115.564 19.08 115.618 19.2L117.798 24.52C117.871 24.7 117.931 24.88 117.978 25.06C118.031 25.24 118.081 25.4233 118.128 25.61C118.188 25.4233 118.248 25.24 118.308 25.06C118.368 24.8733 118.434 24.69 118.508 24.51L120.568 19.2C120.621 19.0667 120.708 18.9567 120.828 18.87C120.954 18.7833 121.094 18.74 121.248 18.74H123.228Z" fill="black"/>
</svg>
