<svg width="164" height="74" viewBox="0 0 164 74" fill="none" xmlns="http://www.w3.org/2000/svg">
<rect x="1" y="1.5" width="162" height="71" rx="11" stroke="white" stroke-width="2"/>
<path d="M42.6725 41.6412L47 46M45 36C45 40.4183 41.4183 44 37 44C32.5817 44 29 40.4183 29 36C29 31.5817 32.5817 28 37 28C41.4183 28 45 31.5817 45 36Z" stroke="white" stroke-width="2" stroke-linecap="round" stroke-linejoin="round"/>
<path d="M65.7727 34.2727C65.7045 33.697 65.428 33.25 64.9432 32.9318C64.4583 32.6136 63.8636 32.4545 63.1591 32.4545C62.6439 32.4545 62.1932 32.5379 61.8068 32.7045C61.4242 32.8712 61.125 33.1004 60.9091 33.392C60.697 33.6837 60.5909 34.0152 60.5909 34.3864C60.5909 34.697 60.6648 34.964 60.8125 35.1875C60.964 35.4072 61.1572 35.5909 61.392 35.7386C61.6269 35.8826 61.8731 36.0019 62.1307 36.0966C62.3883 36.1875 62.625 36.2614 62.8409 36.3182L64.0227 36.6364C64.3258 36.7159 64.6629 36.8258 65.0341 36.9659C65.4091 37.1061 65.767 37.2973 66.108 37.5398C66.4527 37.7784 66.7367 38.0852 66.9602 38.4602C67.1837 38.8352 67.2955 39.2955 67.2955 39.8409C67.2955 40.4697 67.1307 41.0379 66.8011 41.5455C66.4754 42.053 65.9981 42.4564 65.3693 42.7557C64.7443 43.0549 63.9848 43.2045 63.0909 43.2045C62.2576 43.2045 61.536 43.0701 60.9261 42.8011C60.3201 42.5322 59.8428 42.1572 59.4943 41.6761C59.1496 41.1951 58.9545 40.6364 58.9091 40H60.3636C60.4015 40.4394 60.5492 40.803 60.8068 41.0909C61.0682 41.375 61.3977 41.5871 61.7955 41.7273C62.197 41.8636 62.6288 41.9318 63.0909 41.9318C63.6288 41.9318 64.1117 41.8447 64.5398 41.6705C64.9678 41.4924 65.3068 41.2462 65.5568 40.9318C65.8068 40.6136 65.9318 40.2424 65.9318 39.8182C65.9318 39.4318 65.8239 39.1174 65.608 38.875C65.392 38.6326 65.108 38.4356 64.7557 38.2841C64.4034 38.1326 64.0227 38 63.6136 37.8864L62.1818 37.4773C61.2727 37.2159 60.553 36.8428 60.0227 36.358C59.4924 35.8731 59.2273 35.2386 59.2273 34.4545C59.2273 33.803 59.4034 33.2348 59.7557 32.75C60.1117 32.2614 60.589 31.8826 61.1875 31.6136C61.7898 31.3409 62.4621 31.2045 63.2045 31.2045C63.9545 31.2045 64.6212 31.339 65.2045 31.608C65.7879 31.8731 66.25 32.2367 66.5909 32.6989C66.9356 33.161 67.1174 33.6856 67.1364 34.2727H65.7727ZM73.2395 43.1818C72.3986 43.1818 71.6732 42.9962 71.0634 42.625C70.4573 42.25 69.9895 41.7273 69.6599 41.0568C69.3342 40.3826 69.1713 39.5985 69.1713 38.7045C69.1713 37.8106 69.3342 37.0227 69.6599 36.3409C69.9895 35.6553 70.4478 35.1212 71.0349 34.7386C71.6259 34.3523 72.3152 34.1591 73.1031 34.1591C73.5577 34.1591 74.0065 34.2348 74.4497 34.3864C74.8929 34.5379 75.2963 34.7841 75.6599 35.125C76.0236 35.4621 76.3134 35.9091 76.5293 36.4659C76.7452 37.0227 76.8531 37.7083 76.8531 38.5227V39.0909H70.1259V37.9318H75.4895C75.4895 37.4394 75.391 37 75.194 36.6136C75.0009 36.2273 74.7243 35.9223 74.3645 35.6989C74.0084 35.4754 73.588 35.3636 73.1031 35.3636C72.569 35.3636 72.1069 35.4962 71.7168 35.7614C71.3304 36.0227 71.033 36.3636 70.8247 36.7841C70.6164 37.2045 70.5122 37.6553 70.5122 38.1364V38.9091C70.5122 39.5682 70.6259 40.1269 70.8531 40.5852C71.0842 41.0398 71.4043 41.3864 71.8134 41.625C72.2224 41.8598 72.6978 41.9773 73.2395 41.9773C73.5918 41.9773 73.9099 41.928 74.194 41.8295C74.4819 41.7273 74.73 41.5758 74.9384 41.375C75.1467 41.1705 75.3077 40.9167 75.4213 40.6136L76.7168 40.9773C76.5804 41.4167 76.3512 41.803 76.0293 42.1364C75.7073 42.4659 75.3096 42.7235 74.8361 42.9091C74.3626 43.0909 73.8304 43.1818 73.2395 43.1818ZM81.6111 43.2045C81.058 43.2045 80.5562 43.1004 80.1054 42.892C79.6546 42.6799 79.2967 42.375 79.0315 41.9773C78.7664 41.5758 78.6338 41.0909 78.6338 40.5227C78.6338 40.0227 78.7323 39.6174 78.9293 39.3068C79.1262 38.9924 79.3895 38.7462 79.719 38.5682C80.0486 38.3902 80.4122 38.2576 80.8099 38.1705C81.2115 38.0795 81.6149 38.0076 82.0202 37.9545C82.5505 37.8864 82.9804 37.8352 83.3099 37.8011C83.6433 37.7633 83.8857 37.7008 84.0372 37.6136C84.1925 37.5265 84.2702 37.375 84.2702 37.1591V37.1136C84.2702 36.553 84.1168 36.1174 83.8099 35.8068C83.5069 35.4962 83.0467 35.3409 82.4293 35.3409C81.7891 35.3409 81.2872 35.4811 80.9236 35.7614C80.5599 36.0417 80.3043 36.3409 80.1565 36.6591L78.8838 36.2045C79.1111 35.6742 79.4141 35.2614 79.7929 34.9659C80.1755 34.6667 80.5921 34.4583 81.0429 34.3409C81.4974 34.2197 81.9444 34.1591 82.3838 34.1591C82.6641 34.1591 82.9861 34.1932 83.3497 34.2614C83.7171 34.3258 84.0713 34.4602 84.4122 34.6648C84.7569 34.8693 85.0429 35.178 85.2702 35.5909C85.4974 36.0038 85.6111 36.5568 85.6111 37.25V43H84.2702V41.8182H84.202C84.1111 42.0076 83.9596 42.2102 83.7474 42.4261C83.5353 42.642 83.2531 42.8258 82.9009 42.9773C82.5486 43.1288 82.1187 43.2045 81.6111 43.2045ZM81.8156 42C82.3459 42 82.7929 41.8958 83.1565 41.6875C83.524 41.4792 83.8005 41.2102 83.9861 40.8807C84.1755 40.5511 84.2702 40.2045 84.2702 39.8409V38.6136C84.2134 38.6818 84.0884 38.7443 83.8952 38.8011C83.7058 38.8542 83.4861 38.9015 83.2361 38.9432C82.9899 38.9811 82.7493 39.0152 82.5145 39.0455C82.2834 39.072 82.0959 39.0947 81.952 39.1136C81.6035 39.1591 81.2777 39.233 80.9747 39.3352C80.6755 39.4337 80.433 39.5833 80.2474 39.7841C80.0656 39.9811 79.9747 40.25 79.9747 40.5909C79.9747 41.0568 80.1471 41.4091 80.4918 41.6477C80.8402 41.8826 81.2815 42 81.8156 42ZM88.2085 43V34.2727H89.504V35.5909H89.5949C89.754 35.1591 90.0419 34.8087 90.4585 34.5398C90.8752 34.2708 91.3449 34.1364 91.8676 34.1364C91.9661 34.1364 92.0892 34.1383 92.2369 34.142C92.3847 34.1458 92.4964 34.1515 92.5722 34.1591V35.5227C92.5267 35.5114 92.4225 35.4943 92.2597 35.4716C92.1006 35.4451 91.932 35.4318 91.754 35.4318C91.3297 35.4318 90.9509 35.5208 90.6176 35.6989C90.2881 35.8731 90.0267 36.1155 89.8335 36.4261C89.6441 36.733 89.5494 37.0833 89.5494 37.4773V43H88.2085ZM97.5915 43.1818C96.7733 43.1818 96.0687 42.9886 95.4778 42.6023C94.8869 42.2159 94.4324 41.6837 94.1142 41.0057C93.796 40.3277 93.6369 39.553 93.6369 38.6818C93.6369 37.7955 93.7998 37.0133 94.1256 36.3352C94.4551 35.6534 94.9134 35.1212 95.5006 34.7386C96.0915 34.3523 96.7809 34.1591 97.5687 34.1591C98.1824 34.1591 98.7354 34.2727 99.2278 34.5C99.7203 34.7273 100.124 35.0455 100.438 35.4545C100.752 35.8636 100.948 36.3409 101.023 36.8864H99.6824C99.5801 36.4886 99.3528 36.1364 99.0006 35.8295C98.6521 35.5189 98.1824 35.3636 97.5915 35.3636C97.0687 35.3636 96.6104 35.5 96.2165 35.7727C95.8263 36.0417 95.5214 36.4223 95.3017 36.9148C95.0858 37.4034 94.9778 37.9773 94.9778 38.6364C94.9778 39.3106 95.0839 39.8977 95.296 40.3977C95.5119 40.8977 95.815 41.286 96.2051 41.5625C96.5991 41.839 97.0612 41.9773 97.5915 41.9773C97.94 41.9773 98.2562 41.9167 98.5403 41.7955C98.8244 41.6742 99.065 41.5 99.2619 41.2727C99.4589 41.0455 99.5991 40.7727 99.6824 40.4545H101.023C100.948 40.9697 100.76 41.4337 100.461 41.8466C100.165 42.2557 99.7733 42.5814 99.2847 42.8239C98.7998 43.0625 98.2354 43.1818 97.5915 43.1818ZM104.474 37.75V43H103.134V31.3636H104.474V35.6364H104.588C104.793 35.1856 105.099 34.8277 105.509 34.5625C105.921 34.2936 106.471 34.1591 107.156 34.1591C107.751 34.1591 108.272 34.2784 108.719 34.517C109.166 34.7519 109.512 35.1136 109.759 35.6023C110.009 36.0871 110.134 36.7045 110.134 37.4545V43H108.793V37.5455C108.793 36.8523 108.613 36.3163 108.253 35.9375C107.897 35.5549 107.402 35.3636 106.77 35.3636C106.33 35.3636 105.937 35.4564 105.588 35.642C105.243 35.8277 104.971 36.0985 104.77 36.4545C104.573 36.8106 104.474 37.2424 104.474 37.75Z" fill="white"/>
</svg>
