<svg width="80" height="80" viewBox="0 0 80 80" fill="none" xmlns="http://www.w3.org/2000/svg">
<circle cx="40" cy="40" r="40" fill="#EFF8FF"/>
<g clip-path="url(#clip0_121_599)">
<path d="M57.9506 22.0494C57.5733 21.6725 57.1025 21.4029 56.5866 21.2683C56.0706 21.1336 55.5281 21.1389 55.0148 21.2835L20.0783 31.1373C19.4905 31.3031 18.9673 31.6443 18.5786 32.1154C18.1899 32.5865 17.9543 33.1651 17.9032 33.7737C17.8521 34.3823 17.988 34.992 18.2927 35.5213C18.5975 36.0506 19.0565 36.4743 19.6085 36.7357L34.221 43.6575L44.2114 33.6671C44.4928 33.3857 44.8743 33.2277 45.2722 33.2277C45.67 33.2277 46.0516 33.3857 46.3329 33.6671C46.6142 33.9484 46.7723 34.3299 46.7723 34.7278C46.7723 35.1256 46.6142 35.5072 46.3329 35.7885L36.3425 45.7789L43.2642 60.3915C43.504 60.9056 43.8859 61.3404 44.3648 61.6445C44.8437 61.9486 45.3996 62.1093 45.9669 62.1076C46.0527 62.1076 46.1392 62.104 46.2263 62.0968C46.836 62.0491 47.4162 61.8147 47.8879 61.4255C48.3597 61.0363 48.7 60.5112 48.8627 59.9216L58.7165 24.9851C58.8609 24.4718 58.8661 23.9294 58.7315 23.4134C58.5969 22.8975 58.3273 22.4267 57.9506 22.0494Z" fill="#001F3F"/>
</g>
<defs>
<clipPath id="clip0_121_599">
<rect width="48" height="48" fill="white" transform="translate(16 16)"/>
</clipPath>
</defs>
</svg>
