<svg width="49" height="48" viewBox="0 0 49 48" fill="none" xmlns="http://www.w3.org/2000/svg">
<path d="M20 38C21.1 38 22 37.1 22 36H18C18 37.1 18.9 38 20 38ZM26 32V27C26 23.93 24.37 21.36 21.5 20.68V20C21.5 19.17 20.83 18.5 20 18.5C19.17 18.5 18.5 19.17 18.5 20V20.68C15.64 21.36 14 23.92 14 27V32L12 34V35H28V34L26 32ZM24 33H16V27C16 24.52 17.51 22.5 20 22.5C22.49 22.5 24 24.52 24 27V33Z" fill="black" fill-opacity="0.54"/>
<g filter="url(#filter0_ddd_1364_1812)">
<rect x="26" y="4" width="18" height="17" rx="8.5" fill="#F2994A"/>
<rect x="25" y="3" width="20" height="19" rx="9.5" stroke="white" stroke-width="2"/>
<path d="M33.9189 11.9131H34.6221C34.8955 11.9131 35.1217 11.8659 35.3008 11.7715C35.4831 11.6771 35.6182 11.5469 35.7061 11.3809C35.7939 11.2148 35.8379 11.0244 35.8379 10.8096C35.8379 10.585 35.7972 10.3929 35.7158 10.2334C35.6377 10.0706 35.5173 9.94531 35.3545 9.85742C35.195 9.76953 34.9915 9.72559 34.7441 9.72559C34.5358 9.72559 34.347 9.7679 34.1777 9.85254C34.0117 9.93392 33.8799 10.0511 33.7822 10.2041C33.6846 10.3538 33.6357 10.5329 33.6357 10.7412H32.4541C32.4541 10.3636 32.5534 10.0283 32.752 9.73535C32.9505 9.44238 33.2207 9.21289 33.5625 9.04688C33.9076 8.8776 34.2949 8.79297 34.7246 8.79297C35.1836 8.79297 35.584 8.86947 35.9258 9.02246C36.2708 9.1722 36.5394 9.39681 36.7314 9.69629C36.9235 9.99577 37.0195 10.3669 37.0195 10.8096C37.0195 11.0114 36.9723 11.2165 36.8779 11.4248C36.7835 11.6331 36.6436 11.8236 36.458 11.9961C36.2725 12.1654 36.0413 12.3037 35.7646 12.4111C35.488 12.5153 35.1673 12.5674 34.8027 12.5674H33.9189V11.9131ZM33.9189 12.8311V12.1865H34.8027C35.2194 12.1865 35.5742 12.2354 35.8672 12.333C36.1634 12.4307 36.4043 12.5658 36.5898 12.7383C36.7754 12.9076 36.9105 13.1012 36.9951 13.3193C37.083 13.5374 37.127 13.7686 37.127 14.0127C37.127 14.3447 37.0667 14.641 36.9463 14.9014C36.8291 15.1585 36.6615 15.3766 36.4434 15.5557C36.2253 15.7347 35.9697 15.8698 35.6768 15.9609C35.387 16.0521 35.0713 16.0977 34.7295 16.0977C34.4235 16.0977 34.1305 16.0553 33.8506 15.9707C33.5706 15.8861 33.32 15.7607 33.0986 15.5947C32.8773 15.4255 32.7015 15.2155 32.5713 14.9648C32.4443 14.7109 32.3809 14.418 32.3809 14.0859H33.5576C33.5576 14.2975 33.6064 14.4847 33.7041 14.6475C33.805 14.807 33.945 14.9323 34.124 15.0234C34.3063 15.1146 34.5146 15.1602 34.749 15.1602C34.9964 15.1602 35.2096 15.1162 35.3887 15.0283C35.5677 14.9404 35.7044 14.8102 35.7988 14.6377C35.8965 14.4652 35.9453 14.2568 35.9453 14.0127C35.9453 13.736 35.8916 13.5114 35.7842 13.3389C35.6768 13.1663 35.5238 13.0394 35.3252 12.958C35.1266 12.8734 34.8923 12.8311 34.6221 12.8311H33.9189Z" fill="white"/>
</g>
<defs>
<filter id="filter0_ddd_1364_1812" x="21" y="0" width="28" height="27" filterUnits="userSpaceOnUse" color-interpolation-filters="sRGB">
<feFlood flood-opacity="0" result="BackgroundImageFix"/>
<feColorMatrix in="SourceAlpha" type="matrix" values="0 0 0 0 0 0 0 0 0 0 0 0 0 0 0 0 0 0 127 0" result="hardAlpha"/>
<feOffset dy="1"/>
<feGaussianBlur stdDeviation="1.5"/>
<feColorMatrix type="matrix" values="0 0 0 0 0 0 0 0 0 0 0 0 0 0 0 0 0 0 0.16 0"/>
<feBlend mode="normal" in2="BackgroundImageFix" result="effect1_dropShadow_1364_1812"/>
<feColorMatrix in="SourceAlpha" type="matrix" values="0 0 0 0 0 0 0 0 0 0 0 0 0 0 0 0 0 0 127 0" result="hardAlpha"/>
<feOffset dy="2"/>
<feGaussianBlur stdDeviation="0.5"/>
<feColorMatrix type="matrix" values="0 0 0 0 0 0 0 0 0 0 0 0 0 0 0 0 0 0 0.09 0"/>
<feBlend mode="normal" in2="effect1_dropShadow_1364_1812" result="effect2_dropShadow_1364_1812"/>
<feColorMatrix in="SourceAlpha" type="matrix" values="0 0 0 0 0 0 0 0 0 0 0 0 0 0 0 0 0 0 127 0" result="hardAlpha"/>
<feOffset dy="1"/>
<feGaussianBlur stdDeviation="0.5"/>
<feColorMatrix type="matrix" values="0 0 0 0 0 0 0 0 0 0 0 0 0 0 0 0 0 0 0.11 0"/>
<feBlend mode="normal" in2="effect2_dropShadow_1364_1812" result="effect3_dropShadow_1364_1812"/>
<feBlend mode="normal" in="SourceGraphic" in2="effect3_dropShadow_1364_1812" result="shape"/>
</filter>
</defs>
</svg>
