<svg width="35" height="35" viewBox="0 0 35 35" fill="none" xmlns="http://www.w3.org/2000/svg">
<g clip-path="url(#clip0_1364_1558)">
<path d="M17.4997 11.6666C19.1038 11.6666 20.4163 10.3541 20.4163 8.74992C20.4163 7.14575 19.1038 5.83325 17.4997 5.83325C15.8955 5.83325 14.583 7.14575 14.583 8.74992C14.583 10.3541 15.8955 11.6666 17.4997 11.6666ZM17.4997 14.5833C15.8955 14.5833 14.583 15.8958 14.583 17.4999C14.583 19.1041 15.8955 20.4166 17.4997 20.4166C19.1038 20.4166 20.4163 19.1041 20.4163 17.4999C20.4163 15.8958 19.1038 14.5833 17.4997 14.5833ZM17.4997 23.3333C15.8955 23.3333 14.583 24.6458 14.583 26.2499C14.583 27.8541 15.8955 29.1666 17.4997 29.1666C19.1038 29.1666 20.4163 27.8541 20.4163 26.2499C20.4163 24.6458 19.1038 23.3333 17.4997 23.3333Z" fill="white"/>
</g>
<defs>
<clipPath id="clip0_1364_1558">
<rect width="35" height="35" fill="white"/>
</clipPath>
</defs>
</svg>
