<svg width="7" height="25" viewBox="0 0 7 25" fill="none" xmlns="http://www.w3.org/2000/svg">
<path d="M3.49967 6.66658C5.10384 6.66658 6.41634 5.35409 6.41634 3.74992C6.41634 2.14575 5.10384 0.833252 3.49967 0.833252C1.89551 0.833252 0.583008 2.14575 0.583008 3.74992C0.583008 5.35409 1.89551 6.66658 3.49967 6.66658ZM3.49967 9.58325C1.89551 9.58325 0.583008 10.8958 0.583008 12.4999C0.583008 14.1041 1.89551 15.4166 3.49967 15.4166C5.10384 15.4166 6.41634 14.1041 6.41634 12.4999C6.41634 10.8958 5.10384 9.58325 3.49967 9.58325ZM3.49967 18.3333C1.89551 18.3333 0.583008 19.6458 0.583008 21.2499C0.583008 22.8541 1.89551 24.1666 3.49967 24.1666C5.10384 24.1666 6.41634 22.8541 6.41634 21.2499C6.41634 19.6458 5.10384 18.3333 3.49967 18.3333Z" fill="white"/>
</svg>
