<svg width="80" height="80" viewBox="0 0 80 80" fill="none" xmlns="http://www.w3.org/2000/svg">
<circle cx="40" cy="40" r="40" fill="#EFF8FF"/>
<g clip-path="url(#clip0_111_1060)">
<path d="M57.9506 22.0495C57.5734 21.6726 57.1026 21.4029 56.5866 21.2683C56.0706 21.1337 55.5281 21.1389 55.0148 21.2835L20.0783 31.1373C19.4905 31.3031 18.9673 31.6444 18.5786 32.1155C18.1899 32.5866 17.9543 33.1651 17.9032 33.7737C17.8521 34.3824 17.988 34.9921 18.2928 35.5214C18.5975 36.0507 19.0565 36.4744 19.6085 36.7358L34.221 43.6575L44.2114 33.6671C44.4928 33.3858 44.8743 33.2278 45.2722 33.2278C45.67 33.2278 46.0516 33.3858 46.3329 33.6671C46.6142 33.9485 46.7723 34.33 46.7723 34.7279C46.7723 35.1257 46.6142 35.5073 46.3329 35.7886L36.3425 45.779L43.2642 60.3916C43.504 60.9057 43.8859 61.3405 44.3648 61.6445C44.8437 61.9486 45.3996 62.1093 45.9669 62.1076C46.0527 62.1076 46.1392 62.104 46.2263 62.0968C46.836 62.0491 47.4162 61.8147 47.8879 61.4255C48.3597 61.0363 48.7 60.5112 48.8627 59.9217L58.7165 24.9852C58.8609 24.4719 58.8661 23.9294 58.7315 23.4135C58.5969 22.8975 58.3274 22.4267 57.9506 22.0495Z" fill="#001F3F"/>
</g>
<defs>
<clipPath id="clip0_111_1060">
<rect width="48" height="48" fill="white" transform="translate(16 16)"/>
</clipPath>
</defs>
</svg>
