<svg width="34" height="42" viewBox="0 0 34 42" fill="none" xmlns="http://www.w3.org/2000/svg">
<path d="M29.5 8.50033H25.3333C25.3333 3.89616 21.6041 0.166992 17 0.166992C12.3958 0.166992 8.66665 3.89616 8.66665 8.50033H4.49998C2.20831 8.50033 0.333313 10.3753 0.333313 12.667V37.667C0.333313 39.9587 2.20831 41.8337 4.49998 41.8337H29.5C31.7916 41.8337 33.6666 39.9587 33.6666 37.667V12.667C33.6666 10.3753 31.7916 8.50033 29.5 8.50033ZM17 4.33366C19.2916 4.33366 21.1666 6.20866 21.1666 8.50033H12.8333C12.8333 6.20866 14.7083 4.33366 17 4.33366ZM29.5 37.667H4.49998V12.667H8.66665V16.8337C8.66665 17.9795 9.60415 18.917 10.75 18.917C11.8958 18.917 12.8333 17.9795 12.8333 16.8337V12.667H21.1666V16.8337C21.1666 17.9795 22.1041 18.917 23.25 18.917C24.3958 18.917 25.3333 17.9795 25.3333 16.8337V12.667H29.5V37.667Z" fill="#2D9CDB"/>
</svg>
