<svg width="24" height="24" viewBox="0 0 24 24" fill="none" xmlns="http://www.w3.org/2000/svg">
<path d="M14.405 18.975C14.4403 18.7985 14.458 18.7102 14.4903 18.6279C14.5189 18.5548 14.5561 18.4853 14.601 18.421C14.6516 18.3484 14.7152 18.2848 14.8426 18.1574L19 14C19.5523 13.4477 20.4477 13.4477 21 14C21.5523 14.5523 21.5523 15.4477 21 16L16.8426 20.1574C16.7152 20.2848 16.6516 20.3484 16.579 20.399C16.5147 20.4439 16.4452 20.4811 16.3721 20.5097C16.2898 20.542 16.2015 20.5597 16.025 20.595L14 21L14.405 18.975Z" fill="#323232"/>
<path d="M14 7C14 9.20914 12.2091 11 10 11C7.79086 11 6 9.20914 6 7C6 4.79086 7.79086 3 10 3C12.2091 3 14 4.79086 14 7Z" fill="#323232"/>
<path d="M10 21H4.6C4.03995 21 3.75992 21 3.54601 20.891C3.35785 20.7951 3.20487 20.6422 3.10899 20.454C3 20.2401 3 19.9601 3 19.4V17.6841C3 17.0485 3 16.7306 3.04798 16.4656C3.27087 15.2344 4.23442 14.2709 5.46558 14.048C5.5425 14.0341 5.6237 14.0242 5.71575 14.0172C5.94079 14 6.05331 13.9914 6.20361 14.0026C6.35983 14.0143 6.4472 14.0297 6.59797 14.0722C6.74302 14.1131 7.00429 14.2315 7.52682 14.4682C8.28093 14.8098 9.11825 15 10 15C10.8817 15 11.7191 14.8098 12.4732 14.4682C12.9957 14.2315 13.2569 14.1132 13.4019 14.0723C13.5527 14.0297 13.6399 14.0143 13.7961 14.0027C13.8672 13.9974 13.9299 13.9965 14 13.9988M14 21L16.025 20.595C16.2015 20.5597 16.2898 20.542 16.3721 20.5097C16.4452 20.4811 16.5147 20.4439 16.579 20.399C16.6516 20.3484 16.7152 20.2848 16.8426 20.1574L21 16C21.5523 15.4477 21.5523 14.5523 21 14C20.4477 13.4477 19.5523 13.4477 19 14L14.8426 18.1574C14.7152 18.2848 14.6516 18.3484 14.601 18.421C14.5561 18.4853 14.5189 18.5548 14.4903 18.6279C14.458 18.7102 14.4403 18.7985 14.405 18.975L14 21ZM14 7C14 9.20914 12.2091 11 10 11C7.79086 11 6 9.20914 6 7C6 4.79086 7.79086 3 10 3C12.2091 3 14 4.79086 14 7Z" stroke="#323232" stroke-width="2" stroke-linecap="round" stroke-linejoin="round"/>
</svg>
