<svg width="42" height="42" viewBox="0 0 42 42" fill="none" xmlns="http://www.w3.org/2000/svg">
<path d="M40.9506 1.04946C40.5734 0.672557 40.1026 0.402933 39.5866 0.268316C39.0706 0.133699 38.5281 0.138947 38.0148 0.28352L3.07833 10.1373C2.4905 10.3031 1.96728 10.6444 1.5786 11.1155C1.18992 11.5866 0.954289 12.1651 0.903212 12.7737C0.852134 13.3824 0.988039 13.9921 1.29276 14.5214C1.59749 15.0507 2.05651 15.4744 2.60848 15.7358L17.221 22.6575L27.2114 12.6671C27.4928 12.3858 27.8743 12.2278 28.2722 12.2278C28.67 12.2278 29.0516 12.3858 29.3329 12.6671C29.6142 12.9485 29.7723 13.33 29.7723 13.7279C29.7723 14.1257 29.6142 14.5073 29.3329 14.7886L19.3425 24.779L26.2642 39.3916C26.504 39.9057 26.8859 40.3405 27.3648 40.6445C27.8437 40.9486 28.3996 41.1093 28.9669 41.1076C29.0527 41.1076 29.1392 41.104 29.2263 41.0968C29.836 41.0491 30.4162 40.8147 30.8879 40.4255C31.3597 40.0363 31.7 39.5112 31.8627 38.9217L41.7165 3.98519C41.8609 3.47191 41.8661 2.92943 41.7315 2.41349C41.5969 1.89755 41.3274 1.42675 40.9506 1.04946Z" fill="#001F3F"/>
</svg>
