<svg width="42" height="38" viewBox="0 0 42 38" fill="none" xmlns="http://www.w3.org/2000/svg">
<path d="M2.25 10.6663V28.9997C2.25 31.3332 2.25 32.5 2.70414 33.3913C3.10361 34.1753 3.74103 34.8127 4.52504 35.2122C5.41634 35.6663 6.58311 35.6663 8.91667 35.6663H33.0833C35.4169 35.6663 36.5837 35.6663 37.475 35.2122C38.259 34.8127 38.8964 34.1753 39.2959 33.3913C39.75 32.5 39.75 31.3332 39.75 28.9997V16.2913C39.75 14.9349 39.75 14.2567 39.5936 13.702C39.2001 12.3067 38.1096 11.2163 36.7143 10.8228C36.1596 10.6663 35.4814 10.6663 34.125 10.6663M2.25 10.6663V8.99967C2.25 6.66612 2.25 5.49935 2.70414 4.60805C3.10361 3.82404 3.74103 3.18662 4.52504 2.78715C5.41634 2.33301 6.58311 2.33301 8.91667 2.33301H27.4583C29.7919 2.33301 30.9587 2.33301 31.85 2.78715C32.634 3.18662 33.2714 3.82404 33.6709 4.60805C34.125 5.49935 34.125 6.66612 34.125 8.99968V10.6663M2.25 10.6663H34.125M39.75 18.9997H35.5833C33.2821 18.9997 31.4167 20.8652 31.4167 23.1663C31.4167 25.4675 33.2821 27.333 35.5833 27.333H39.75V18.9997Z" stroke="#2D9CDB" stroke-width="4" stroke-linecap="round" stroke-linejoin="round"/>
</svg>
